<!-- icon666.com - MILLIONS vector ICONS FREE --><svg id="Layer_1" enable-background="new 0 0 32 32" viewBox="0 0 32 32" xmlns="http://www.w3.org/2000/svg"><g><path d="m16 4.13c-4.41 0-8 3.59-8 8 0 4.25 7.28 15.05 7.59 15.51.09.14.25.22.41.22s.32-.08.41-.22c.31-.45 7.59-11.26 7.59-15.51 0-4.41-3.59-8-8-8zm0 22.33c-1.56-2.38-7-10.93-7-14.33 0-3.86 3.14-7 7-7s7 3.14 7 7c0 3.4-5.44 11.95-7 14.33z" fill="#000000" style="fill: rgb(0, 0, 0);"></path><path d="m16 8.08c-1.95 0-3.53 1.59-3.53 3.53 0 1.95 1.59 3.53 3.53 3.53s3.53-1.59 3.53-3.53c0-1.95-1.58-3.53-3.53-3.53zm0 6.06c-1.4 0-2.53-1.14-2.53-2.53s1.13-2.53 2.53-2.53 2.53 1.14 2.53 2.53-1.13 2.53-2.53 2.53z" fill="#000000" style="fill: rgb(0, 0, 0);"></path></g></svg>